<svg xmlns="http://www.w3.org/2000/svg" width="40" height="40" viewBox="0 0 40 40" fill="none">
  <g clip-path="url(#clip0_355_13516)">
    <path d="M1.11125 25.5905H5.55542C6.16903 25.5905 6.66667 26.0877 6.66667 26.7013V37.8125C6.66667 38.4261 6.16903 38.9238 5.55542 38.9238H1.11125C0.49764 38.9238 0 38.4261 0 37.8125V26.7013C0 26.0877 0.49764 25.5905 1.11125 25.5905Z" fill="white"/>
    <path d="M12.2222 16.7013H16.6667C17.2804 16.7013 17.778 17.1989 17.778 17.8125V37.8125C17.778 38.4261 17.2804 38.9238 16.6667 38.9238H12.2222C11.6086 38.9238 11.1113 38.4261 11.1113 37.8125V17.8125C11.1113 17.1989 11.6086 16.7013 12.2222 16.7013Z" fill="white"/>
    <path d="M23.3339 21.1459H27.7785C28.3921 21.1459 28.8893 21.6435 28.8893 22.2571V37.8125C28.8893 38.4261 28.3921 38.9238 27.7785 38.9238H23.3339C22.7203 38.9238 22.2227 38.4261 22.2227 37.8125V22.2571C22.2227 21.6435 22.7203 21.1459 23.3339 21.1459Z" fill="white"/>
    <path d="M34.4452 14.4791H38.8894C39.503 14.4791 40.0007 14.9768 40.0007 15.5904V37.8125C40.0007 38.4261 39.503 38.9237 38.8894 38.9237H34.4452C33.8316 38.9237 33.334 38.4261 33.334 37.8125V15.5904C33.334 14.9768 33.8316 14.4791 34.4452 14.4791Z" fill="white"/>
    <path d="M36.6667 1.14587C34.8267 1.14791 33.3354 2.6392 33.3333 4.47921C33.3378 4.84216 33.4021 5.20186 33.5238 5.54366L27.9614 8.85014C27.2314 8.07581 26.1731 7.70064 25.1184 7.84184C24.0633 7.98303 23.1413 8.62349 22.6404 9.56262L17.7344 7.13261C17.7584 6.98979 17.7726 6.84574 17.7779 6.70129C17.7804 5.35201 16.9694 4.13456 15.7235 3.61658C14.4775 3.099 13.0424 3.38342 12.0882 4.3372C11.1336 5.29098 10.8484 6.72571 11.3656 7.97205L5.00163 12.7214C4.49707 12.4207 3.9209 12.2604 3.33333 12.2571C1.49251 12.2571 0 13.7492 0 15.5905C0 17.4313 1.49251 18.9238 3.33333 18.9238C5.17415 18.9238 6.66667 17.4313 6.66667 15.5905C6.66382 15.1892 6.58813 14.7925 6.44328 14.4186L12.8707 9.62162C14.128 10.3227 15.6962 10.1172 16.7301 9.11544L22.3092 11.8787C22.6811 13.5352 24.2399 14.6469 25.9273 14.4589C27.6147 14.2709 28.8908 12.8439 28.8888 11.1459C28.8888 11.0612 28.87 10.9815 28.8639 10.8985L34.9137 7.30188C35.4382 7.6335 36.0457 7.81051 36.6667 7.81254C38.5075 7.81254 40 6.32003 40 4.47921C40 2.63839 38.5075 1.14587 36.6667 1.14587Z" fill="white"/>
  </g>
  <defs>
    <clipPath id="clip0_355_13516">
      <rect width="40" height="40" fill="white"/>
    </clipPath>
  </defs>
</svg>