<svg xmlns="http://www.w3.org/2000/svg" width="20" height="20" viewBox="0 0 20 20" fill="none">
  <path d="M17.1112 10.6769H15.5645C15.7221 11.1085 15.8082 11.5743 15.8082 12.0599V17.9056C15.8082 18.108 15.773 18.3023 15.7089 18.483H18.266C19.2212 18.483 19.9983 17.7059 19.9983 16.7507V13.564C19.9983 11.972 18.7031 10.6769 17.1112 10.6769Z" fill="white"/>
  <path d="M4.19005 12.0594C4.19005 11.5738 4.27618 11.108 4.43384 10.6764H2.88712C1.29516 10.6764 0 11.9715 0 13.5635V16.7503C0 17.7054 0.777072 18.4825 1.73227 18.4825H4.28938C4.22528 18.3018 4.19005 18.1075 4.19005 17.9051V12.0594Z" fill="white"/>
  <path d="M11.7649 9.17273H8.22891C6.63696 9.17273 5.3418 10.4679 5.3418 12.0598V17.9056C5.3418 18.2244 5.60031 18.483 5.91922 18.483H14.0746C14.3935 18.483 14.6521 18.2245 14.6521 17.9056V12.0598C14.6521 10.4679 13.3569 9.17273 11.7649 9.17273Z" fill="white"/>
  <path d="M9.99946 1.51721C8.08493 1.51721 6.52734 3.07479 6.52734 4.98937C6.52734 6.288 7.2441 7.42218 8.30262 8.01765C8.80469 8.30008 9.38352 8.46148 9.99946 8.46148C10.6154 8.46148 11.1942 8.30008 11.6963 8.01765C12.7549 7.42218 13.4716 6.28796 13.4716 4.98937C13.4716 3.07483 11.914 1.51721 9.99946 1.51721Z" fill="white"/>
  <path d="M3.90333 4.75378C2.47149 4.75378 1.30664 5.91863 1.30664 7.35047C1.30664 8.78231 2.47149 9.94715 3.90333 9.94715C4.26653 9.94715 4.61239 9.87192 4.92657 9.73668C5.46977 9.50282 5.91767 9.08883 6.19481 8.57028C6.38935 8.20633 6.50001 7.79113 6.50001 7.35047C6.50001 5.91867 5.33516 4.75378 3.90333 4.75378Z" fill="white"/>
  <path d="M16.0986 4.75378C14.6668 4.75378 13.502 5.91863 13.502 7.35047C13.502 7.79117 13.6126 8.20637 13.8071 8.57028C14.0843 9.08887 14.5322 9.50286 15.0754 9.73668C15.3896 9.87192 15.7354 9.94715 16.0986 9.94715C17.5305 9.94715 18.6953 8.78231 18.6953 7.35047C18.6953 5.91863 17.5305 4.75378 16.0986 4.75378Z" fill="white"/>
</svg>