<svg xmlns="http://www.w3.org/2000/svg" width="20" height="20" viewBox="0 0 20 20" fill="none">
  <g clip-path="url(#clip0_355_13536)">
    <path d="M5.41337 19.4117H1.17808C0.883961 19.4117 0.589844 19.1176 0.589844 18.8235V14.5294C0.589844 14.1765 0.883961 13.9412 1.17808 13.9412H5.29573V18.8235C5.29573 19 5.35455 19.2353 5.41337 19.4117Z" fill="white"/>
    <path d="M13.5295 11.7647V18.8236C13.5295 19.1177 13.2354 19.4118 12.9413 19.4118H7.05894C6.76482 19.4118 6.4707 19.1177 6.4707 18.8236V11.7647C6.4707 11.4118 6.76482 11.1765 7.05894 11.1765H12.9413C13.2354 11.1765 13.5295 11.4118 13.5295 11.7647Z" fill="white"/>
    <path d="M19.4134 15.2943V18.8237C19.4134 19.1178 19.1193 19.4119 18.8251 19.4119H14.5898C14.6487 19.2355 14.7075 19.0002 14.7075 18.8237V14.7061H18.8251C19.1193 14.7061 19.4134 14.9413 19.4134 15.2943Z" fill="white"/>
    <path d="M14.7678 4.70596L12.8266 6.58831L13.2972 9.2942C13.356 9.52949 13.2384 9.76478 13.0619 9.88243C12.8854 10.0001 12.5913 10.0001 12.4149 9.94126L10.0031 8.64714L7.59132 9.88243C7.41485 10.0001 7.17956 10.0001 7.00309 9.82361C6.82662 9.70596 6.70897 9.47067 6.76779 9.23537L7.23838 6.52949L5.23838 4.70596C5.12073 4.58831 5.06191 4.35302 5.12073 4.11773C5.17956 3.88243 5.35603 3.76479 5.59132 3.70596L8.2972 3.2942L9.47367 0.882432C9.65015 0.470667 10.356 0.470667 10.5325 0.882432L11.709 3.2942L14.4149 3.70596C14.6501 3.76479 14.8266 3.88243 14.8854 4.11773C14.9443 4.35302 14.8854 4.58831 14.7678 4.70596Z" fill="white"/>
  </g>
  <defs>
    <clipPath id="clip0_355_13536">
      <rect width="20" height="20" fill="white"/>
    </clipPath>
  </defs>
</svg>