<svg xmlns="http://www.w3.org/2000/svg" width="20" height="20" viewBox="0 0 20 20" fill="none">
  <g clip-path="url(#clip0_355_13529)">
    <path d="M2.92578 14.0186V19.9622H16.9584V14.0186L10.5268 15.1879V16.454H9.3574V15.1879L2.92578 14.0186Z" fill="white"/>
    <path d="M12.8656 7.90701L12.5423 7.7454C12.4896 7.71901 11.2347 7.099 9.94209 7.099C8.64953 7.099 7.39463 7.71901 7.34185 7.7454L7.01863 7.90701V9.43777H2.92578V12.83L9.94209 14.1057L16.9584 12.83V9.43777H12.8656V7.90701ZM11.6962 9.43773H8.18802V8.65159C8.57992 8.49653 9.27083 8.26835 9.94209 8.26835C10.6135 8.26835 11.3045 8.49665 11.6962 8.65155V9.43773Z" fill="white"/>
    <path d="M1.20571 8.3808L3.1566 7.77003L5.10753 8.3808L5.12951 6.33667L6.31324 4.66999L4.37592 4.01739L3.1566 2.37659L1.93732 4.01739L0 4.66999L1.18373 6.33667L1.20571 8.3808Z" fill="white"/>
    <path d="M9.9418 0.0378418L8.72248 1.67865L6.78516 2.33124L7.96893 3.99793L7.99091 6.04205L9.9418 5.43128L11.8927 6.04205L11.9147 3.99789L13.0984 2.33124L11.1611 1.67865L9.9418 0.0378418Z" fill="white"/>
    <path d="M16.8441 2.37659L15.6248 4.01739L13.6875 4.66999L14.8712 6.33663L14.8932 8.3808L16.8441 7.77003L18.795 8.3808L18.817 6.33667L20.0007 4.66999L18.0634 4.01739L16.8441 2.37659Z" fill="white"/>
  </g>
  <defs>
    <clipPath id="clip0_355_13529">
      <rect width="20" height="20" fill="white"/>
    </clipPath>
  </defs>
</svg>