<svg xmlns="http://www.w3.org/2000/svg" width="18" height="18" viewBox="0 0 18 18" fill="none">
  <g clip-path="url(#clip0_329_1498)">
    <path d="M17.8418 3.57617L12.3828 9.00004L17.8418 14.4239C17.9405 14.2177 18.0004 13.9896 18.0004 13.7461V4.25395C18.0004 4.01042 17.9405 3.78243 17.8418 3.57617Z" fill="#FFFDF4"/>
    <path d="M16.418 2.67188H1.58207C1.33855 2.67188 1.11056 2.73175 0.904297 2.83043L7.88151 9.77249C8.49843 10.3894 9.50165 10.3894 10.1186 9.77249L17.0958 2.83043C16.8895 2.73175 16.6615 2.67188 16.418 2.67188Z" fill="#FFFDF4"/>
    <path d="M0.158555 3.57617C0.0598711 3.78243 0 4.01042 0 4.25395V13.7461C0 13.9897 0.0598711 14.2177 0.158555 14.4239L5.61758 9.00004L0.158555 3.57617Z" fill="#FFFDF4"/>
    <path d="M11.6368 9.74573L10.8643 10.5182C9.83634 11.5461 8.16371 11.5461 7.13578 10.5182L6.36332 9.74573L0.904297 15.1696C1.11056 15.2683 1.33855 15.3282 1.58207 15.3282H16.418C16.6615 15.3282 16.8895 15.2683 17.0958 15.1696L11.6368 9.74573Z" fill="#FFFDF4"/>
  </g>
  <defs>
    <clipPath id="clip0_329_1498">
      <rect width="18" height="18" fill="white"/>
    </clipPath>
  </defs>
</svg>