<svg xmlns="http://www.w3.org/2000/svg" width="18" height="18" viewBox="0 0 18 18" fill="none">
  <g clip-path="url(#clip0_329_1480)">
    <path d="M17.5088 13.2102L14.9968 10.6982C14.0997 9.80111 12.5746 10.16 12.2157 11.3262C11.9466 12.1337 11.0495 12.5822 10.242 12.4028C8.44779 11.9542 6.02555 9.62168 5.57699 7.73772C5.30785 6.93027 5.84612 6.03314 6.65354 5.76404C7.8198 5.40519 8.17865 3.88007 7.28153 2.98295L4.76957 0.470991C4.05187 -0.156997 2.97532 -0.156997 2.34733 0.470991L0.642792 2.17553C-1.06175 3.96978 0.822217 8.72455 5.03871 12.941C9.25521 17.1575 14.01 19.1313 15.8042 17.337L17.5088 15.6324C18.1368 14.9147 18.1368 13.8382 17.5088 13.2102Z" fill="#FFFDF4"/>
  </g>
  <defs>
    <clipPath id="clip0_329_1480">
      <rect width="18" height="18" fill="white"/>
    </clipPath>
  </defs>
</svg>