<svg xmlns="http://www.w3.org/2000/svg" width="20" height="20" viewBox="0 0 20 20" fill="none">
  <path d="M13.9862 12.2688C13.9557 12.1267 13.8767 11.9996 13.7626 11.9095C13.6485 11.8194 13.5066 11.7718 13.3612 11.7751H6.62999C6.48464 11.7718 6.34272 11.8194 6.22865 11.9095C6.11457 11.9996 6.03548 12.1267 6.00499 12.2688L5.05499 16.8001C5.03514 16.8924 5.03645 16.988 5.05884 17.0797C5.08123 17.1714 5.12411 17.2568 5.18425 17.3296C5.24439 17.4024 5.32024 17.4606 5.4061 17.4999C5.49196 17.5391 5.5856 17.5584 5.67999 17.5563H14.3362C14.4306 17.5584 14.5243 17.5391 14.6101 17.4999C14.696 17.4606 14.7718 17.4024 14.832 17.3296C14.8921 17.2568 14.935 17.1714 14.9574 17.0797C14.9798 16.988 14.9811 16.8924 14.9612 16.8001L13.9862 12.2688Z" fill="#FFFDF4"/>
  <path d="M17.4 6.875H2.6C2.0762 6.875 1.57385 7.08308 1.20346 7.45346C0.83308 7.82385 0.625 8.3262 0.625 8.85V13.75C0.625 13.9158 0.690848 14.0747 0.808058 14.1919C0.925268 14.3092 1.08424 14.375 1.25 14.375H4.425L5 11.1375C5.02662 10.9919 5.10405 10.8605 5.21851 10.7666C5.33296 10.6728 5.47701 10.6226 5.625 10.625H14.375C14.523 10.6226 14.667 10.6728 14.7815 10.7666C14.8959 10.8605 14.9734 10.9919 15 11.1375L15.575 14.375H18.75C18.9158 14.375 19.0747 14.3092 19.1919 14.1919C19.3092 14.0747 19.375 13.9158 19.375 13.75V8.85C19.375 8.3262 19.1669 7.82385 18.7965 7.45346C18.4262 7.08308 17.9238 6.875 17.4 6.875Z" fill="#FFFDF4"/>
  <path d="M15 3.125C15 2.95924 14.9342 2.80027 14.8169 2.68306C14.6997 2.56585 14.5408 2.5 14.375 2.5H5.625C5.45924 2.5 5.30027 2.56585 5.18306 2.68306C5.06585 2.80027 5 2.95924 5 3.125V6.25H15V3.125Z" fill="#FFFDF4"/>
</svg>